<svg width="24" height="24" viewBox="0 0 24 24" fill="none" xmlns="http://www.w3.org/2000/svg">
<path d="M19.6822 11.0706C19.8866 11.3255 19.9998 11.6567 19.9998 12.0001C19.9998 12.3435 19.8866 12.6746 19.6822 12.9295C18.3874 14.4971 15.4403 17.5491 11.9999 17.5491C8.55957 17.5491 5.61245 14.4971 4.3177 12.9295C4.1132 12.6746 4 12.3435 4 12.0001C4 11.6567 4.1132 11.3255 4.3177 11.0706C5.61245 9.50301 8.55957 6.45105 11.9999 6.45105C15.4403 6.45105 18.3874 9.50301 19.6822 11.0706Z" stroke="#999999" stroke-linecap="round" stroke-linejoin="round"/>
<path d="M11.9999 14.4662C13.3619 14.4662 14.4661 13.3621 14.4661 12C14.4661 10.638 13.3619 9.53381 11.9999 9.53381C10.6378 9.53381 9.53369 10.638 9.53369 12C9.53369 13.3621 10.6378 14.4662 11.9999 14.4662Z" stroke="#999999" stroke-linecap="round" stroke-linejoin="round"/>
</svg>
