<svg width="9" height="16" viewBox="0 0 9 16" fill="none" xmlns="http://www.w3.org/2000/svg">
<path d="M0.66 0.909988C0.542917 1.0404 0.484375 1.18374 0.484375 1.33999C0.484375 1.49624 0.542917 1.6329 0.66 1.74999L6.75375 7.99999L0.66 14.25C0.542917 14.3671 0.484375 14.5037 0.484375 14.66C0.484375 14.8162 0.542917 14.9529 0.66 15.07C0.777083 15.1871 0.91375 15.2456 1.07 15.2456C1.22625 15.2456 1.36292 15.1935 1.48 15.0894L7.945 8.42936C8.06208 8.31228 8.12062 8.16895 8.12062 7.99936C8.12062 7.82978 8.06208 7.68645 7.945 7.56936L1.48 0.909363C1.36292 0.805196 1.22625 0.753113 1.07 0.753113C0.91375 0.753113 0.777083 0.805196 0.66 0.909363V0.909988Z" fill="white"/>
</svg>
