<svg width="24" height="24" viewBox="0 0 24 24" fill="none" xmlns="http://www.w3.org/2000/svg">
<path d="M5.47769 3C5.00409 3 4.54988 3.18235 4.215 3.50693L2.97769 4.70617C1.58296 6.05798 1.58296 8.24971 2.97769 9.60152C4.25117 10.8358 6.24711 10.9431 7.6462 9.92342C8.24277 10.3575 8.98496 10.6154 9.78878 10.6154C10.5927 10.6154 11.335 10.3574 11.9316 9.92322C12.5283 10.3574 13.2705 10.6154 14.0745 10.6154C14.8783 10.6154 15.6205 10.3575 16.2171 9.92342C17.6162 10.9431 19.6121 10.8358 20.8856 9.60152C22.2803 8.24971 22.2803 6.05798 20.8856 4.70617L19.6483 3.50693C19.3134 3.18235 18.8592 3 18.3856 3L5.47769 3Z" fill="#999999"/>
<path fill-rule="evenodd" clip-rule="evenodd" d="M3.36021 19.6154V11.5339C4.71279 12.1556 6.29345 12.1552 7.64634 11.5333C8.29607 11.8322 9.02318 12 9.78878 12C10.5546 12 11.2818 11.8322 11.9316 11.5331C12.5815 11.8322 13.3087 12 14.0745 12C14.8401 12 15.5672 11.8322 16.2169 11.5333C17.5698 12.1552 19.1505 12.1556 20.5031 11.5339V19.6154H21.2174C21.6118 19.6154 21.9316 19.9253 21.9316 20.3077C21.9316 20.69 21.6118 21 21.2174 21H2.64593C2.25144 21 1.93164 20.69 1.93164 20.3077C1.93164 19.9253 2.25144 19.6154 2.64593 19.6154H3.36021ZM6.21735 14.0769C6.21735 13.6946 6.53715 13.3846 6.93164 13.3846H9.78878C10.1833 13.3846 10.5031 13.6946 10.5031 14.0769V16.8462C10.5031 17.2285 10.1833 17.5385 9.78878 17.5385H6.93164C6.53715 17.5385 6.21735 17.2285 6.21735 16.8462V14.0769ZM14.0745 13.3846C13.68 13.3846 13.3602 13.6946 13.3602 14.0769V18.9231C13.3602 19.3054 13.68 19.6154 14.0745 19.6154H16.9316C17.3261 19.6154 17.6459 19.3054 17.6459 18.9231V14.0769C17.6459 13.6946 17.3261 13.3846 16.9316 13.3846H14.0745Z" fill="#999999"/>
</svg>
