
<svg width="24" height="24" viewBox="0 0 24 24" fill="none" xmlns="http://www.w3.org/2000/svg">
<g id="d-arrow-left">
<path id="vector" d="M12.3982 3.492C12.5387 3.367 12.7027 3.3045 12.8902 3.3045C13.0777 3.3045 13.2417 3.37475 13.3822 3.51525C13.5227 3.65575 13.593 3.81975 13.593 4.00725C13.593 4.19475 13.5227 4.35875 13.3822 4.49925L6.06974 11.9993L13.3822 19.4993C13.5227 19.6398 13.593 19.8078 13.593 20.0033C13.593 20.1988 13.5227 20.3628 13.3822 20.4953C13.2417 20.6278 13.0777 20.6943 12.8902 20.6948C12.7027 20.6953 12.5387 20.6328 12.3982 20.5073L4.64024 12.5153C4.49974 12.3588 4.42949 12.183 4.42949 11.988C4.42949 11.793 4.49974 11.625 4.64024 11.484L12.3982 3.492ZM18.3982 3.492C18.5387 3.367 18.7027 3.3045 18.8902 3.3045C19.0777 3.3045 19.2417 3.37475 19.3822 3.51525C19.5227 3.65575 19.593 3.81975 19.593 4.00725C19.593 4.19475 19.5227 4.35875 19.3822 4.49925L12.0697 11.9993L19.3822 19.4993C19.5227 19.6398 19.593 19.8078 19.593 20.0033C19.593 20.1988 19.5227 20.3628 19.3822 20.4953C19.2417 20.6278 19.0777 20.6943 18.8902 20.6948C18.7027 20.6953 18.5387 20.6328 18.3982 20.5073L10.6402 12.5153C10.4997 12.3588 10.4295 12.183 10.4295 11.988C10.4295 11.793 10.4997 11.625 10.6402 11.484L18.3982 3.492Z" fill="#B81C22"/>
</g>
</svg>
