
<svg width="24" height="24" viewBox="0 0 24 24" fill="none" xmlns="http://www.w3.org/2000/svg">
<path d="M10.617 3.492C10.7575 3.367 10.9215 3.3045 11.109 3.3045C11.2965 3.3045 11.4605 3.367 11.601 3.492L19.359 11.484C19.4995 11.6245 19.5698 11.7965 19.5698 12C19.5698 12.2035 19.4995 12.3755 19.359 12.516L11.601 20.508C11.4605 20.633 11.2965 20.6955 11.109 20.6955C10.9215 20.6955 10.7575 20.6253 10.617 20.4848C10.4765 20.3443 10.4063 20.1803 10.4063 19.9928C10.4063 19.8053 10.4765 19.6413 10.617 19.5008L17.9295 12.0008L10.617 4.50075C10.4765 4.36025 10.4062 4.19625 10.4062 4.00875C10.4062 3.82125 10.4765 3.64925 10.617 3.49275V3.492ZM4.617 3.492C4.7575 3.367 4.9215 3.3045 5.109 3.3045C5.2965 3.3045 5.4605 3.367 5.601 3.492L13.359 11.484C13.4995 11.6245 13.5698 11.7965 13.5698 12C13.5698 12.2035 13.4995 12.3755 13.359 12.516L5.601 20.508C5.4605 20.633 5.2965 20.6955 5.109 20.6955C4.9215 20.6955 4.7575 20.6253 4.617 20.4848C4.4765 20.3443 4.40625 20.1803 4.40625 19.9928C4.40625 19.8053 4.4765 19.6413 4.617 19.5008L11.9295 12.0008L4.617 4.50075C4.4765 4.36025 4.40625 4.19625 4.40625 4.00875C4.40625 3.82125 4.4765 3.64925 4.617 3.49275V3.492Z" fill="#B81C22"/>
</svg>
