<svg width="24" height="24" viewBox="0 0 24 24" fill="none" xmlns="http://www.w3.org/2000/svg">
<path d="M3.65485 3C3.29319 3 3 3.29848 3 3.66667C3 4.03486 3.29319 4.33333 3.65485 4.33333H5.19469C5.50816 4.33333 5.77767 4.55949 5.8375 4.87275L7.71736 14.7151C7.89686 15.6549 8.70538 16.3333 9.64579 16.3333H17.6745C18.5893 16.3333 19.3831 15.6905 19.5888 14.7831L20.9488 8.78305C21.2329 7.52982 20.298 6.33333 19.0346 6.33333H7.4507L7.12312 4.61826C6.94362 3.67848 6.1351 3 5.19469 3H3.65485ZM18.7164 19.6667C18.7164 20.403 18.13 21 17.4067 21C16.6834 21 16.097 20.403 16.097 19.6667C16.097 18.9303 16.6834 18.3333 17.4067 18.3333C18.13 18.3333 18.7164 18.9303 18.7164 19.6667ZM9.5485 21C10.2718 21 10.8582 20.403 10.8582 19.6667C10.8582 18.9303 10.2718 18.3333 9.5485 18.3333C8.82518 18.3333 8.2388 18.9303 8.2388 19.6667C8.2388 20.403 8.82518 21 9.5485 21Z" fill="#999999"/>
</svg>
