<svg width="22" height="18" viewBox="0 0 22 18" fill="none" xmlns="http://www.w3.org/2000/svg">
<path d="M15.875 0C15.6679 0 15.5 0.167893 15.5 0.375V16.5H12.5V4.875C12.5 4.66789 12.3321 4.5 12.125 4.5H9.875C9.66789 4.5 9.5 4.66789 9.5 4.875V16.5H6.5V10.875C6.5 10.6679 6.33211 10.5 6.125 10.5H3.875C3.66789 10.5 3.5 10.6679 3.5 10.875V16.5H1.25C0.835786 16.5 0.5 16.8358 0.5 17.25C0.5 17.6642 0.835786 18 1.25 18H20.75C21.1642 18 21.5 17.6642 21.5 17.25C21.5 16.8358 21.1642 16.5 20.75 16.5H18.5V0.375C18.5 0.167893 18.3321 0 18.125 0H15.875Z" fill="#999999"/>
</svg>
