<svg width="60" height="60" viewBox="0 0 60 60" fill="none" xmlns="http://www.w3.org/2000/svg">
<g clip-path="url(#clip0_2059_7006)">
<mask id="mask0_2059_7006" style="mask-type:luminance" maskUnits="userSpaceOnUse" x="0" y="0" width="60" height="60">
<path d="M60 0H0V60H60V0Z" fill="white"/>
</mask>
<g mask="url(#mask0_2059_7006)">
<mask id="mask1_2059_7006" style="mask-type:luminance" maskUnits="userSpaceOnUse" x="0" y="0" width="61" height="60">
<path d="M60.0002 0H0.0681152V60H60.0002V0Z" fill="white"/>
</mask>
<g mask="url(#mask1_2059_7006)">
<path d="M21.9751 4.2998C21.7341 4.29998 21.494 4.32919 21.2599 4.3868L2.2914 9.0098C1.63781 9.16824 1.05644 9.54217 0.640825 10.0714C0.225206 10.6007 -0.00050386 11.2546 1.76562e-06 11.9278V48.0418C-0.000728157 48.7152 0.224879 49.3693 0.640515 49.8988C1.05615 50.4283 1.63764 50.8023 2.2914 50.9608L21.2629 55.5818C21.4971 55.6386 21.7371 55.6675 21.9781 55.6678C22.7733 55.6665 23.5355 55.3493 24.0973 54.7859C24.6591 54.2225 24.9747 53.4589 24.9747 52.6628V7.3068C24.975 6.91218 24.8976 6.52137 24.747 6.15669C24.5964 5.792 24.3755 5.46059 24.097 5.18136C23.8184 4.90214 23.4877 4.68057 23.1236 4.52931C22.7595 4.37805 22.3693 4.30007 21.9751 4.2998Z" fill="#22AAEE"/>
<path d="M51.9731 23.792L57.7606 29.782C57.8504 29.8771 57.8993 30.0038 57.8969 30.1346C57.8945 30.2655 57.8409 30.3902 57.7476 30.482L51.7654 36.276" stroke="#22AAEE" stroke-width="4" stroke-miterlimit="10" stroke-linecap="round"/>
<path d="M38.9558 30.0332H55.8616" stroke="#22AAEE" stroke-width="4" stroke-miterlimit="10" stroke-linecap="round"/>
<g opacity="0.3">
<mask id="mask2_2059_7006" style="mask-type:luminance" maskUnits="userSpaceOnUse" x="28" y="8" width="18" height="44">
<path d="M45.948 8.48438H28.9673V51.4844H45.948V8.48438Z" fill="white"/>
</mask>
<g mask="url(#mask2_2059_7006)">
<path d="M42.9564 8.48438H28.9673V51.4844H42.9564C43.7495 51.4831 44.5096 51.1671 45.0704 50.6057C45.6311 50.0443 45.9467 49.2833 45.948 48.4894V11.4794C45.9467 10.6855 45.6311 9.92444 45.0704 9.36305C44.5096 8.80167 43.7495 8.4857 42.9564 8.48438Z" fill="#22AAEE"/>
</g>
</g>
<path d="M19.0124 34C18.4826 34 17.9744 33.7893 17.5998 33.4142C17.2251 33.0391 17.0146 32.5304 17.0146 32V28C17.0146 27.4696 17.2251 26.9609 17.5998 26.5858C17.9744 26.2107 18.4826 26 19.0124 26C19.5422 26 20.0503 26.2107 20.425 26.5858C20.7996 26.9609 21.0101 27.4696 21.0101 28V32C21.0101 32.5304 20.7996 33.0391 20.425 33.4142C20.0503 33.7893 19.5422 34 19.0124 34Z" fill="white"/>
</g>
</g>
</g>
<defs>
<clipPath id="clip0_2059_7006">
<rect width="60" height="60" fill="white"/>
</clipPath>
</defs>
</svg>
