<svg width="30" height="20" viewBox="0 0 30 20" fill="none" xmlns="http://www.w3.org/2000/svg">
<path d="M27.3215 9.54386L8.18774 11.0475V7.82422L27.3215 9.3279C27.3857 9.33435 27.4225 9.38109 27.4225 9.43588C27.4225 9.49068 27.3857 9.53742 27.3215 9.54225V9.54386Z" fill="url(#paint0_linear_1542_16191)"/>
<path d="M8.18758 17.4137C5.22703 17.4137 2.81787 14.9914 2.81787 12.0146V0.330078H3.9399V12.0146C3.9399 14.3693 5.84575 16.2856 8.18758 16.2856C10.5294 16.2856 12.4353 14.3693 12.4353 12.0146V2.58641H25.8996L19.6483 16.205H29.2657V17.3331H17.8851L24.1364 3.71457H13.5573V12.0146C13.5573 14.9914 11.1481 17.4137 8.18758 17.4137Z" fill="white"/>
<path d="M8.18774 19.67C3.98975 19.67 0.573975 16.2356 0.573975 12.0146V0.330078H1.696V12.0146C1.696 15.6135 4.60847 18.5419 8.18774 18.5419C11.767 18.5419 14.6795 15.6135 14.6795 12.0146V4.84274H22.3734L16.1221 18.4613H29.2658V19.5895H14.3589L20.6102 5.9709H15.8015V12.0146C15.8015 16.2356 12.3857 19.67 8.18774 19.67Z" fill="white"/>
<path d="M8.18766 15.1574C6.46455 15.1574 5.06201 13.7472 5.06201 12.0146V0.330078H6.18404V12.0146C6.18404 13.1251 7.08327 14.0292 8.18766 14.0292C9.29206 14.0292 10.1913 13.1251 10.1913 12.0146V0.330078H29.4261L23.1748 13.9486H29.2658V15.0768H21.4116L27.6629 1.45824H11.3133V12.0146C11.3133 13.7472 9.91078 15.1574 8.18766 15.1574Z" fill="white"/>
<path d="M27.3215 9.328L15.8015 8.42224V10.4481L27.3215 9.54235C27.3857 9.5359 27.4225 9.48916 27.4225 9.43598C27.4225 9.38279 27.3857 9.33444 27.3215 9.328Z" fill="url(#paint1_linear_1542_16191)"/>
<defs>
<linearGradient id="paint0_linear_1542_16191" x1="8.14767" y1="9.43588" x2="25.9735" y2="9.43588" gradientUnits="userSpaceOnUse">
<stop stop-color="#00CC00"/>
<stop offset="1" stop-color="#00FF00"/>
</linearGradient>
<linearGradient id="paint1_linear_1542_16191" x1="-12.2492" y1="-9.33991" x2="25.9735" y2="-9.33991" gradientUnits="userSpaceOnUse">
<stop stop-color="#00CC00"/>
<stop offset="1" stop-color="#00FF00"/>
</linearGradient>
</defs>
</svg>
