<svg width="100" height="21" viewBox="0 0 100 21" fill="none" xmlns="http://www.w3.org/2000/svg">
<path d="M34.4078 5.7144C34.4351 5.60319 34.5473 5.50488 34.6579 5.50488H34.8807C34.964 5.50488 35.0891 5.57418 35.1163 5.65799L38.0224 12.8073H38.0785L40.9717 5.65799C40.9989 5.57418 41.1112 5.50488 41.2089 5.50488H41.4317C41.5423 5.50488 41.6545 5.60319 41.6818 5.7144L43.3921 15.1152C43.4338 15.3102 43.336 15.4376 43.142 15.4376H42.238C42.113 15.4376 42.0024 15.3393 41.9735 15.2426L40.9445 8.9893H40.9028L38.3991 15.4247C38.3718 15.5085 38.2885 15.5778 38.1634 15.5778H37.9134C37.8028 15.5778 37.705 15.5085 37.6777 15.4247L35.1612 8.9893H35.1051L34.1033 15.2426C34.0889 15.3409 33.9638 15.4376 33.8532 15.4376H32.9492C32.7536 15.4376 32.6575 15.3119 32.6847 15.1152L34.4094 5.7144H34.4078Z" fill="white"/>
<path d="M44.5381 15.0749L48.8082 5.65958C48.8499 5.57577 48.9749 5.50647 49.0454 5.50647H49.1849C49.2538 5.50647 49.3804 5.57577 49.4221 5.65958L53.6634 15.0749C53.7467 15.257 53.6361 15.4392 53.4262 15.4392H52.5494C52.3827 15.4392 52.2849 15.3553 52.2288 15.2296L51.3664 13.3134H46.819C46.5417 13.9564 46.2484 14.5866 45.9711 15.2296C45.9294 15.3279 45.8188 15.4392 45.6505 15.4392H44.7737C44.5653 15.4392 44.4531 15.257 44.5381 15.0749ZM50.8375 12.1095L49.1272 8.27692H49.0583L47.3624 12.1095H50.8391H50.8375Z" fill="white"/>
<path d="M55.0852 5.7563C55.0852 5.61609 55.2102 5.50488 55.3497 5.50488H55.6975L61.734 12.5285H61.7485V5.91102C61.7485 5.77081 61.8591 5.6451 62.0129 5.6451H62.9025C63.042 5.6451 63.167 5.77081 63.167 5.91102V15.3264C63.167 15.4666 63.042 15.5778 62.9025 15.5778H62.5403L56.5054 8.35914H56.4909V15.1716C56.4909 15.3119 56.3803 15.4376 56.2265 15.4376H55.3497C55.2102 15.4376 55.0852 15.3119 55.0852 15.1716V5.7563Z" fill="white"/>
<path d="M64.5904 15.0749L68.8605 5.65958C68.9022 5.57577 69.0272 5.50647 69.0961 5.50647H69.2356C69.3045 5.50647 69.4295 5.57577 69.4712 5.65958L73.7125 15.0749C73.7958 15.257 73.6852 15.4392 73.4752 15.4392H72.5984C72.4317 15.4392 72.334 15.3553 72.2779 15.2296L71.4155 13.3134H66.8681C66.5892 13.9564 66.2975 14.5866 66.0202 15.2296C65.9785 15.3279 65.8679 15.4392 65.6996 15.4392H64.8228C64.6144 15.4392 64.5022 15.257 64.5856 15.0749H64.5904ZM70.8898 12.1095L69.1795 8.27692H69.1105L67.4131 12.1095H70.8898Z" fill="white"/>
<path d="M79.0293 5.50488C80.3645 5.50488 81.4625 5.99483 82.4082 6.8055C82.5188 6.9167 82.5332 7.08593 82.4226 7.19713C82.2143 7.42115 82.0059 7.63067 81.7975 7.85469C81.6869 7.9804 81.5747 7.96589 81.4352 7.84018C80.7813 7.26643 79.9189 6.8893 79.071 6.8893C77.0962 6.8893 75.5799 8.56866 75.5799 10.5268C75.5799 12.485 77.0962 14.1498 79.071 14.1498C80.225 14.1498 81.0185 13.7308 81.1563 13.6744V12.1079H79.7939C79.6416 12.1079 79.5294 11.9967 79.5294 11.8565V11.0458C79.5294 10.8927 79.64 10.7799 79.7939 10.7799H82.3248C82.4643 10.7799 82.5749 10.9056 82.5749 11.0458C82.5749 12.1643 82.5893 13.3118 82.5893 14.4319C82.5893 14.5012 82.5332 14.614 82.4787 14.6559C82.4787 14.6559 81.0457 15.5794 79.0293 15.5794C76.2611 15.5794 74.0234 13.3553 74.0234 10.5574C74.0234 7.7596 76.2627 5.50649 79.0293 5.50649V5.50488Z" fill="white"/>
<path d="M84.8704 5.91107C84.8704 5.77085 84.981 5.64514 85.1348 5.64514H90.6985C90.8508 5.64514 90.963 5.77085 90.963 5.91107V6.69433C90.963 6.83455 90.8524 6.96026 90.6985 6.96026H86.3034V9.81452H90.0173C90.1567 9.81452 90.2817 9.94023 90.2817 10.0804V10.8637C90.2817 11.0168 90.1567 11.1296 90.0173 11.1296H86.3034V14.137H90.6985C90.8508 14.137 90.963 14.2627 90.963 14.4029V15.1717C90.963 15.3119 90.8524 15.4376 90.6985 15.4376H85.1348C84.9826 15.4376 84.8704 15.3119 84.8704 15.1717V5.91107Z" fill="white"/>
<path d="M92.9215 5.91107C92.9215 5.77085 93.0337 5.64514 93.186 5.64514H96.9688C98.6375 5.64514 99.9999 6.97476 99.9999 8.63961C99.9999 9.92733 99.152 10.9894 97.9418 11.4794L99.8476 15.0331C99.9454 15.2152 99.8476 15.4392 99.6104 15.4392H98.5253C98.413 15.4392 98.3297 15.3699 98.3025 15.3135L96.4527 11.6067H94.3529V15.1749C94.3529 15.3151 94.2279 15.4408 94.0884 15.4408H93.1844C93.0321 15.4408 92.9199 15.3151 92.9199 15.1749V5.91429L92.9215 5.91107ZM96.8566 10.4012C97.7607 10.4012 98.5541 9.6324 98.5541 8.66701C98.5541 7.75803 97.7607 7.00216 96.8566 7.00216H94.3818V10.4012H96.8566Z" fill="white"/>
<path d="M26.7476 9.88371L7.61377 11.3874V8.16406L26.7476 9.66775C26.8117 9.67419 26.8485 9.72093 26.8485 9.77573C26.8485 9.83052 26.8117 9.87726 26.7476 9.8821V9.88371Z" fill="url(#paint0_linear_1542_16120)"/>
<path d="M7.61361 17.7536C4.65305 17.7536 2.2439 15.3312 2.2439 12.3545V0.669922H3.36593V12.3545C3.36593 14.7091 5.27177 16.6254 7.61361 16.6254C9.95544 16.6254 11.8613 14.7091 11.8613 12.3545V2.92625H25.3256L19.0743 16.5448H28.6917V17.673H17.3111L23.5624 4.05442H12.9833V12.3545C12.9833 15.3312 10.5742 17.7536 7.61361 17.7536Z" fill="white"/>
<path d="M7.61377 20.0099C3.41578 20.0099 0 16.5754 0 12.3545V0.669922H1.12203V12.3545C1.12203 15.9533 4.03449 18.8817 7.61377 18.8817C11.193 18.8817 14.1055 15.9533 14.1055 12.3545V5.18258H21.7994L15.5481 18.8011H28.6919V19.9293H13.7849L20.0362 6.31075H15.2275V12.3545C15.2275 16.5754 11.8118 20.0099 7.61377 20.0099Z" fill="white"/>
<path d="M7.61369 15.4972C5.89057 15.4972 4.48804 14.087 4.48804 12.3545V0.669922H5.61007V12.3545C5.61007 13.4649 6.50929 14.3691 7.61369 14.3691C8.71809 14.3691 9.61731 13.4649 9.61731 12.3545V0.669922H28.8521L22.6008 14.2885H28.6918V15.4166H20.8376L27.0889 1.79809H10.7393V12.3545C10.7393 14.087 9.3368 15.4972 7.61369 15.4972Z" fill="white"/>
<path d="M26.7476 9.66784L15.2275 8.76208V10.7879L26.7476 9.88219C26.8117 9.87575 26.8486 9.82901 26.8486 9.77582C26.8486 9.72264 26.8117 9.67429 26.7476 9.66784Z" fill="url(#paint1_linear_1542_16120)"/>
<defs>
<linearGradient id="paint0_linear_1542_16120" x1="7.5737" y1="9.77573" x2="25.3995" y2="9.77573" gradientUnits="userSpaceOnUse">
<stop stop-color="#00CC00"/>
<stop offset="1" stop-color="#00FF00"/>
</linearGradient>
<linearGradient id="paint1_linear_1542_16120" x1="-12.8232" y1="-9.00006" x2="25.3995" y2="-9.00006" gradientUnits="userSpaceOnUse">
<stop stop-color="#00CC00"/>
<stop offset="1" stop-color="#00FF00"/>
</linearGradient>
</defs>
</svg>
